<svg xmlns="http://www.w3.org/2000/svg" viewBox="0 0 64 64" role="img" aria-label="WeChat">
  <defs>
    <linearGradient id="wechatGradient" x1="0%" y1="0%" x2="100%" y2="100%">
      <stop offset="0%" stop-color="#34d399"/>
      <stop offset="100%" stop-color="#059669"/>
    </linearGradient>
  </defs>
  <path fill="url(#wechatGradient)" d="M24 10C13.5 10 5 17.2 5 26.1c0 4.9 2.6 9.2 6.7 12L9.4 46l8-4c2 .5 4.2.7 6.6.7 10.5 0 19-7.2 19-16.1S34.5 10 24 10z"/>
  <path fill="#10b981" d="M42.5 24.5c-8.7 0-15.7 5.9-15.7 13.3 0 7.3 7 13.2 15.7 13.2 1.7 0 3.3-.2 4.8-.7l6.8 3.5-1.8-6c3.7-2.4 6-6 6-10 0-7.4-7-13.3-15.8-13.3z"/>
  <circle cx="18.8" cy="25.1" r="2.6" fill="#ffffff"/>
  <circle cx="29.6" cy="25.1" r="2.6" fill="#ffffff"/>
  <circle cx="37.8" cy="37.8" r="2.2" fill="#ffffff"/>
  <circle cx="47.1" cy="37.8" r="2.2" fill="#ffffff"/>
</svg>
